<svg width="48" height="48" viewBox="0 0 48 48" fill="none" xmlns="http://www.w3.org/2000/svg">
<rect width="48" height="48" fill="#323238"/>
<g clip-path="url(#clip0_)">
<path fill-rule="evenodd" clip-rule="evenodd" d="M16.2673 15.0024C15.935 15.0303 15.7484 15.065 15.5078 15.1437C15.0137 15.3053 14.616 15.6041 14.3427 16.019C13.9333 16.6407 13.8862 17.5196 14.2257 18.2054C14.6228 19.0078 15.4674 19.4649 16.4859 19.4286C16.7063 19.4208 16.8163 19.4081 17.0153 19.3678C18.0898 19.1501 18.8219 18.2956 18.8219 17.2588C18.8219 16.3718 18.3726 15.6242 17.6194 15.2583C17.3791 15.1415 17.1038 15.0609 16.825 15.0255C16.6848 15.0078 16.3623 14.9944 16.2673 15.0024ZM28.8217 20.8797C28.2805 20.9156 27.9518 20.971 27.5617 21.0921C26.8164 21.3234 26.1693 21.7613 25.6385 22.3938C25.5429 22.5078 25.3509 22.7637 25.2706 22.8844L25.2142 22.9691L25.2112 22.0754L25.2083 21.1818H23.0606H20.913L20.9202 21.4762C20.9388 22.2249 20.9409 24.7932 20.9263 28.9401C20.9176 31.4243 20.9105 33.5777 20.9105 33.7255V33.9942L23.0595 33.9971L25.2084 34L25.2085 30.2694C25.2085 27.8057 25.2125 26.4942 25.2204 26.4074C25.2514 26.0625 25.3142 25.8375 25.4552 25.5655C25.8537 24.7967 26.4987 24.34 27.3011 24.2584C27.6322 24.2247 27.9953 24.262 28.2936 24.3604C28.8342 24.5387 29.2327 24.9418 29.4636 25.5441C29.5644 25.8069 29.6348 26.1256 29.687 26.556C29.6966 26.6345 29.7021 27.6819 29.7069 30.3294L29.7135 33.9942L31.8568 33.9971L34 34L33.9999 30.178C33.9999 26.0599 33.9998 26.0556 33.9359 25.5098C33.7402 23.8387 33.0767 22.5518 32.0035 21.7616C31.414 21.3275 30.6715 21.0362 29.8861 20.9309C29.5953 20.8919 29.0404 20.8652 28.8217 20.8797ZM14.2535 27.5909V33.9999H16.3996H18.5457V27.5909V21.1818H16.3996H14.2535V27.5909Z" fill="white"/>
</g>
<defs>
<clipPath id="clip0_">
<rect width="24.6857" height="19.2" fill="white" transform="translate(12 14.5712)"/>
</clipPath>
</defs>
</svg>
