<svg width="48" height="48" viewBox="0 0 48 48" fill="none" xmlns="http://www.w3.org/2000/svg">
<rect width="48" height="48" fill="#323238"/>
<path d="M23.9985 12.2498C17.373 12.2498 12 17.6438 12 24.2978C12 29.6198 15.438 34.1348 20.208 35.7293C20.808 35.8403 21.027 35.4683 21.027 35.1488C21.027 34.8623 21.0165 34.1048 21.0105 33.0998C17.673 33.8273 16.968 31.4843 16.968 31.4843C16.4235 30.0923 15.636 29.7218 15.636 29.7218C14.5455 28.9748 15.717 28.9898 15.717 28.9898C16.9215 29.0753 17.5545 30.2318 17.5545 30.2318C18.6255 32.0723 20.364 31.5413 21.048 31.2323C21.156 30.4538 21.4665 29.9228 21.81 29.6213C19.146 29.3168 16.344 28.2833 16.344 23.6678C16.344 22.3523 16.812 21.2768 17.58 20.4338C17.4555 20.1293 17.0445 18.9038 17.697 17.2463C17.697 17.2463 18.705 16.9223 20.997 18.4808C21.954 18.2138 22.98 18.0803 24.0015 18.0758C25.02 18.0818 26.0475 18.2138 27.006 18.4823C29.2965 16.9238 30.303 17.2478 30.303 17.2478C30.957 18.9068 30.546 20.1308 30.423 20.4353C31.1925 21.2783 31.656 22.3538 31.656 23.6693C31.656 28.2968 28.851 29.3153 26.178 29.6138C26.6085 29.9858 26.9925 30.7208 26.9925 31.8443C26.9925 33.4553 26.9775 34.7543 26.9775 35.1488C26.9775 35.4713 27.1935 35.8463 27.8025 35.7278C32.565 34.1318 36 29.6183 36 24.2978C36 17.6438 30.627 12.2498 23.9985 12.2498Z" fill="white"/>
</svg>
