<svg width="375" height="812" viewBox="0 0 375 812" fill="none" xmlns="http://www.w3.org/2000/svg">
<g clip-path="url(#clip0_)">
<rect width="375" height="812" fill="#202024"/>
<circle cx="278" cy="99" r="300" transform="rotate(-180 278 99)" fill="url(#paint0_radial_)"/>
<circle cx="98" cy="99" r="300" transform="rotate(-180 98 99)" fill="url(#paint1_radial_)"/>
<mask id="mask0_" style="mask-type:alpha" maskUnits="userSpaceOnUse" x="0" y="0" width="375" height="812">
<rect width="375" height="812" fill="#202024"/>
</mask>
<g mask="url(#mask0_)">
<path d="M375 168.101V-310.699L187.478 -418.486L-0.0446777 -310.699V168.101L187.478 275.894L375 168.101Z" fill="url(#paint2_linear_)"/>
<g style="mix-blend-mode:luminosity" opacity="0.4">
<path d="M1.83663 61.393V168.797L95.1275 222.505L188.418 168.797V61.393L95.1275 7.68571L1.83663 61.393Z" fill="url(#paint3_linear_)"/>
<path d="M1.83663 -46.0167V61.3877L95.1275 115.095L188.418 61.3877V-46.0167L95.1275 -99.724L1.83663 -46.0167Z" fill="url(#paint4_linear_)"/>
<path d="M281.709 -99.6961V7.70821L188.418 61.4155L95.1274 7.70821V-99.6961L188.418 -153.403L281.709 -99.6961Z" fill="url(#paint5_linear_)"/>
<path d="M188.418 168.797V61.3927L281.709 7.68542L375 61.3927V168.797L281.709 222.504L188.418 168.797Z" fill="url(#paint6_linear_)"/>
<path d="M375 -46.0167V61.3877L281.709 115.095L188.418 61.3877V-46.0167L281.709 -99.724L375 -46.0167Z" fill="url(#paint7_linear_)"/>
<path d="M281.709 222.527V115.123L188.418 61.4155L95.1274 115.123L95.1274 222.527L188.418 276.235L281.709 222.527Z" fill="url(#paint8_linear_)"/>
</g>
</g>
<path d="M115.825 753V745.891H117.832C118.451 745.891 118.997 746.027 119.473 746.301C119.948 746.574 120.314 746.963 120.571 747.468C120.832 747.972 120.964 748.552 120.967 749.206V749.66C120.967 750.331 120.837 750.918 120.576 751.423C120.319 751.927 119.95 752.315 119.468 752.585C118.989 752.855 118.431 752.993 117.793 753H115.825ZM116.763 746.662V752.233H117.749C118.472 752.233 119.033 752.009 119.434 751.56C119.837 751.11 120.039 750.471 120.039 749.641V749.226C120.039 748.418 119.849 747.792 119.468 747.346C119.09 746.896 118.553 746.669 117.856 746.662H116.763ZM124.438 753.098C123.722 753.098 123.14 752.863 122.69 752.395C122.241 751.923 122.017 751.293 122.017 750.505V750.339C122.017 749.815 122.116 749.348 122.314 748.938C122.516 748.524 122.796 748.202 123.154 747.971C123.516 747.736 123.906 747.619 124.326 747.619C125.013 747.619 125.547 747.845 125.928 748.298C126.309 748.75 126.499 749.398 126.499 750.241V750.617H122.92C122.933 751.138 123.084 751.56 123.374 751.882C123.667 752.201 124.038 752.36 124.487 752.36C124.806 752.36 125.076 752.295 125.298 752.165C125.519 752.035 125.713 751.862 125.879 751.647L126.431 752.077C125.988 752.757 125.324 753.098 124.438 753.098ZM124.326 748.361C123.962 748.361 123.656 748.495 123.408 748.762C123.161 749.025 123.008 749.396 122.949 749.875H125.596V749.807C125.57 749.348 125.446 748.993 125.225 748.742C125.003 748.488 124.704 748.361 124.326 748.361ZM130.625 751.599C130.625 751.354 130.532 751.166 130.347 751.032C130.164 750.896 129.844 750.778 129.385 750.681C128.929 750.583 128.566 750.466 128.296 750.329C128.029 750.192 127.83 750.03 127.7 749.841C127.573 749.652 127.51 749.427 127.51 749.167C127.51 748.734 127.692 748.368 128.057 748.068C128.424 747.769 128.893 747.619 129.463 747.619C130.062 747.619 130.547 747.774 130.918 748.083C131.292 748.392 131.479 748.788 131.479 749.27H130.571C130.571 749.022 130.465 748.809 130.254 748.63C130.046 748.451 129.782 748.361 129.463 748.361C129.134 748.361 128.877 748.433 128.691 748.576C128.506 748.719 128.413 748.907 128.413 749.138C128.413 749.356 128.499 749.52 128.672 749.631C128.844 749.742 129.155 749.847 129.604 749.948C130.057 750.049 130.423 750.17 130.703 750.31C130.983 750.45 131.19 750.619 131.323 750.817C131.46 751.013 131.528 751.252 131.528 751.535C131.528 752.007 131.34 752.386 130.962 752.673C130.584 752.956 130.094 753.098 129.492 753.098C129.069 753.098 128.695 753.023 128.369 752.873C128.044 752.723 127.788 752.515 127.603 752.248C127.42 751.978 127.329 751.687 127.329 751.374H128.232C128.249 751.677 128.369 751.918 128.594 752.097C128.822 752.272 129.121 752.36 129.492 752.36C129.834 752.36 130.107 752.292 130.312 752.155C130.521 752.015 130.625 751.83 130.625 751.599ZM134.897 753.098C134.181 753.098 133.599 752.863 133.149 752.395C132.7 751.923 132.476 751.293 132.476 750.505V750.339C132.476 749.815 132.575 749.348 132.773 748.938C132.975 748.524 133.255 748.202 133.613 747.971C133.975 747.736 134.365 747.619 134.785 747.619C135.472 747.619 136.006 747.845 136.387 748.298C136.768 748.75 136.958 749.398 136.958 750.241V750.617H133.379C133.392 751.138 133.543 751.56 133.833 751.882C134.126 752.201 134.497 752.36 134.946 752.36C135.265 752.36 135.535 752.295 135.757 752.165C135.978 752.035 136.172 751.862 136.338 751.647L136.89 752.077C136.447 752.757 135.783 753.098 134.897 753.098ZM134.785 748.361C134.421 748.361 134.115 748.495 133.867 748.762C133.62 749.025 133.467 749.396 133.408 749.875H136.055V749.807C136.029 749.348 135.905 748.993 135.684 748.742C135.462 748.488 135.163 748.361 134.785 748.361ZM138.862 747.717L138.892 748.381C139.295 747.873 139.823 747.619 140.474 747.619C141.59 747.619 142.153 748.249 142.163 749.509V753H141.26V749.504C141.257 749.123 141.169 748.841 140.996 748.659C140.827 748.477 140.562 748.386 140.2 748.386C139.907 748.386 139.65 748.464 139.429 748.62C139.207 748.776 139.035 748.981 138.911 749.235V753H138.008V747.717H138.862ZM145.269 751.774L146.577 747.717H147.5L145.605 753H144.917L143.003 747.717H143.926L145.269 751.774ZM148.052 750.31C148.052 749.792 148.153 749.326 148.354 748.913C148.56 748.5 148.843 748.181 149.204 747.956C149.569 747.731 149.984 747.619 150.449 747.619C151.169 747.619 151.75 747.868 152.192 748.366C152.638 748.864 152.861 749.527 152.861 750.354V750.417C152.861 750.931 152.762 751.394 152.563 751.804C152.368 752.211 152.087 752.528 151.719 752.756C151.354 752.984 150.934 753.098 150.459 753.098C149.743 753.098 149.162 752.849 148.716 752.351C148.273 751.853 148.052 751.193 148.052 750.373V750.31ZM148.96 750.417C148.96 751.003 149.095 751.473 149.365 751.828C149.639 752.183 150.003 752.36 150.459 752.36C150.918 752.36 151.283 752.181 151.553 751.823C151.823 751.462 151.958 750.957 151.958 750.31C151.958 749.73 151.82 749.261 151.543 748.903C151.27 748.542 150.905 748.361 150.449 748.361C150.003 748.361 149.644 748.539 149.37 748.894C149.097 749.248 148.96 749.756 148.96 750.417ZM154.976 753H154.072V745.5H154.976V753ZM158.169 751.774L159.478 747.717H160.4L158.506 753H157.817L155.903 747.717H156.826L158.169 751.774ZM162.251 753H161.348V747.717H162.251V753ZM161.274 746.315C161.274 746.169 161.318 746.045 161.406 745.944C161.497 745.843 161.631 745.793 161.807 745.793C161.982 745.793 162.116 745.843 162.207 745.944C162.298 746.045 162.344 746.169 162.344 746.315C162.344 746.462 162.298 746.584 162.207 746.682C162.116 746.779 161.982 746.828 161.807 746.828C161.631 746.828 161.497 746.779 161.406 746.682C161.318 746.584 161.274 746.462 161.274 746.315ZM163.481 750.314C163.481 749.504 163.674 748.853 164.058 748.361C164.442 747.867 164.945 747.619 165.566 747.619C166.185 747.619 166.675 747.831 167.036 748.254V745.5H167.939V753H167.109L167.065 752.434C166.704 752.876 166.201 753.098 165.557 753.098C164.945 753.098 164.445 752.847 164.058 752.346C163.674 751.844 163.481 751.19 163.481 750.383V750.314ZM164.385 750.417C164.385 751.016 164.508 751.485 164.756 751.823C165.003 752.162 165.345 752.331 165.781 752.331C166.354 752.331 166.772 752.074 167.036 751.56V749.133C166.766 748.635 166.351 748.386 165.791 748.386C165.348 748.386 165.003 748.557 164.756 748.898C164.508 749.24 164.385 749.746 164.385 750.417ZM169.106 750.31C169.106 749.792 169.207 749.326 169.409 748.913C169.614 748.5 169.897 748.181 170.259 747.956C170.623 747.731 171.038 747.619 171.504 747.619C172.223 747.619 172.804 747.868 173.247 748.366C173.693 748.864 173.916 749.527 173.916 750.354V750.417C173.916 750.931 173.817 751.394 173.618 751.804C173.423 752.211 173.141 752.528 172.773 752.756C172.409 752.984 171.989 753.098 171.514 753.098C170.798 753.098 170.216 752.849 169.771 752.351C169.328 751.853 169.106 751.193 169.106 750.373V750.31ZM170.015 750.417C170.015 751.003 170.15 751.473 170.42 751.828C170.693 752.183 171.058 752.36 171.514 752.36C171.973 752.36 172.337 752.181 172.607 751.823C172.878 751.462 173.013 750.957 173.013 750.31C173.013 749.73 172.874 749.261 172.598 748.903C172.324 748.542 171.96 748.361 171.504 748.361C171.058 748.361 170.698 748.539 170.425 748.894C170.151 749.248 170.015 749.756 170.015 750.417ZM181.992 750.417C181.992 751.221 181.808 751.869 181.44 752.36C181.073 752.852 180.575 753.098 179.946 753.098C179.305 753.098 178.8 752.894 178.433 752.487V755.031H177.529V747.717H178.354L178.398 748.303C178.766 747.847 179.277 747.619 179.932 747.619C180.566 747.619 181.068 747.858 181.436 748.337C181.807 748.815 181.992 749.481 181.992 750.334V750.417ZM181.089 750.314C181.089 749.719 180.962 749.248 180.708 748.903C180.454 748.558 180.106 748.386 179.663 748.386C179.116 748.386 178.706 748.628 178.433 749.113V751.638C178.703 752.119 179.116 752.36 179.673 752.36C180.106 752.36 180.449 752.189 180.703 751.848C180.96 751.503 181.089 750.992 181.089 750.314ZM182.905 750.31C182.905 749.792 183.006 749.326 183.208 748.913C183.413 748.5 183.696 748.181 184.058 747.956C184.422 747.731 184.837 747.619 185.303 747.619C186.022 747.619 186.603 747.868 187.046 748.366C187.492 748.864 187.715 749.527 187.715 750.354V750.417C187.715 750.931 187.616 751.394 187.417 751.804C187.222 752.211 186.94 752.528 186.572 752.756C186.208 752.984 185.788 753.098 185.312 753.098C184.596 753.098 184.015 752.849 183.569 752.351C183.127 751.853 182.905 751.193 182.905 750.373V750.31ZM183.813 750.417C183.813 751.003 183.949 751.473 184.219 751.828C184.492 752.183 184.857 752.36 185.312 752.36C185.771 752.36 186.136 752.181 186.406 751.823C186.676 751.462 186.812 750.957 186.812 750.31C186.812 749.73 186.673 749.261 186.396 748.903C186.123 748.542 185.758 748.361 185.303 748.361C184.857 748.361 184.497 748.539 184.224 748.894C183.95 749.248 183.813 749.756 183.813 750.417ZM191.401 748.527C191.265 748.505 191.117 748.493 190.957 748.493C190.365 748.493 189.963 748.745 189.751 749.25V753H188.848V747.717H189.727L189.741 748.327C190.037 747.855 190.457 747.619 191.001 747.619C191.177 747.619 191.31 747.642 191.401 747.688V748.527ZM198.877 749.714H195.796V752.233H199.375V753H194.858V745.891H199.326V746.662H195.796V748.947H198.877V749.714ZM200.542 753V745.891H202.549C203.167 745.891 203.714 746.027 204.189 746.301C204.665 746.574 205.031 746.963 205.288 747.468C205.549 747.972 205.68 748.552 205.684 749.206V749.66C205.684 750.331 205.553 750.918 205.293 751.423C205.036 751.927 204.666 752.315 204.185 752.585C203.706 752.855 203.148 752.993 202.51 753H200.542ZM201.479 746.662V752.233H202.466C203.188 752.233 203.75 752.009 204.15 751.56C204.554 751.11 204.756 750.471 204.756 749.641V749.226C204.756 748.418 204.565 747.792 204.185 747.346C203.807 746.896 203.27 746.669 202.573 746.662H201.479ZM208.047 752.233H211.416V753H207.104V745.891H208.047V752.233ZM214.966 753V745.891H216.973C217.591 745.891 218.138 746.027 218.613 746.301C219.089 746.574 219.455 746.963 219.712 747.468C219.972 747.972 220.104 748.552 220.107 749.206V749.66C220.107 750.331 219.977 750.918 219.717 751.423C219.46 751.927 219.09 752.315 218.608 752.585C218.13 752.855 217.572 752.993 216.934 753H214.966ZM215.903 746.662V752.233H216.89C217.612 752.233 218.174 752.009 218.574 751.56C218.978 751.11 219.18 750.471 219.18 749.641V749.226C219.18 748.418 218.989 747.792 218.608 747.346C218.231 746.896 217.694 746.669 216.997 746.662H215.903ZM223.579 753.098C222.863 753.098 222.28 752.863 221.831 752.395C221.382 751.923 221.157 751.293 221.157 750.505V750.339C221.157 749.815 221.257 749.348 221.455 748.938C221.657 748.524 221.937 748.202 222.295 747.971C222.656 747.736 223.047 747.619 223.467 747.619C224.154 747.619 224.688 747.845 225.068 748.298C225.449 748.75 225.64 749.398 225.64 750.241V750.617H222.061C222.074 751.138 222.225 751.56 222.515 751.882C222.808 752.201 223.179 752.36 223.628 752.36C223.947 752.36 224.217 752.295 224.438 752.165C224.66 752.035 224.854 751.862 225.02 751.647L225.571 752.077C225.129 752.757 224.465 753.098 223.579 753.098ZM223.467 748.361C223.102 748.361 222.796 748.495 222.549 748.762C222.301 749.025 222.148 749.396 222.09 749.875H224.736V749.807C224.71 749.348 224.587 748.993 224.365 748.742C224.144 748.488 223.844 748.361 223.467 748.361ZM228.364 751.774L229.673 747.717H230.596L228.701 753H228.013L226.099 747.717H227.021L228.364 751.774ZM233.589 753.098C232.873 753.098 232.29 752.863 231.841 752.395C231.392 751.923 231.167 751.293 231.167 750.505V750.339C231.167 749.815 231.266 749.348 231.465 748.938C231.667 748.524 231.947 748.202 232.305 747.971C232.666 747.736 233.057 747.619 233.477 747.619C234.163 747.619 234.697 747.845 235.078 748.298C235.459 748.75 235.649 749.398 235.649 750.241V750.617H232.07C232.083 751.138 232.235 751.56 232.524 751.882C232.817 752.201 233.188 752.36 233.638 752.36C233.957 752.36 234.227 752.295 234.448 752.165C234.67 752.035 234.863 751.862 235.029 751.647L235.581 752.077C235.138 752.757 234.474 753.098 233.589 753.098ZM233.477 748.361C233.112 748.361 232.806 748.495 232.559 748.762C232.311 749.025 232.158 749.396 232.1 749.875H234.746V749.807C234.72 749.348 234.596 748.993 234.375 748.742C234.154 748.488 233.854 748.361 233.477 748.361ZM237.681 753H236.777V745.5H237.681V753ZM238.892 750.31C238.892 749.792 238.993 749.326 239.194 748.913C239.399 748.5 239.683 748.181 240.044 747.956C240.409 747.731 240.824 747.619 241.289 747.619C242.008 747.619 242.59 747.868 243.032 748.366C243.478 748.864 243.701 749.527 243.701 750.354V750.417C243.701 750.931 243.602 751.394 243.403 751.804C243.208 752.211 242.926 752.528 242.559 752.756C242.194 752.984 241.774 753.098 241.299 753.098C240.583 753.098 240.002 752.849 239.556 752.351C239.113 751.853 238.892 751.193 238.892 750.373V750.31ZM239.8 750.417C239.8 751.003 239.935 751.473 240.205 751.828C240.479 752.183 240.843 752.36 241.299 752.36C241.758 752.36 242.122 752.181 242.393 751.823C242.663 751.462 242.798 750.957 242.798 750.31C242.798 749.73 242.66 749.261 242.383 748.903C242.109 748.542 241.745 748.361 241.289 748.361C240.843 748.361 240.483 748.539 240.21 748.894C239.937 749.248 239.8 749.756 239.8 750.417ZM249.297 750.417C249.297 751.221 249.113 751.869 248.745 752.36C248.377 752.852 247.879 753.098 247.251 753.098C246.61 753.098 246.105 752.894 245.737 752.487V755.031H244.834V747.717H245.659L245.703 748.303C246.071 747.847 246.582 747.619 247.236 747.619C247.871 747.619 248.372 747.858 248.74 748.337C249.111 748.815 249.297 749.481 249.297 750.334V750.417ZM248.394 750.314C248.394 749.719 248.267 749.248 248.013 748.903C247.759 748.558 247.41 748.386 246.968 748.386C246.421 748.386 246.011 748.628 245.737 749.113V751.638C246.007 752.119 246.421 752.36 246.978 752.36C247.41 752.36 247.754 752.189 248.008 751.848C248.265 751.503 248.394 750.992 248.394 750.314ZM252.642 753.098C251.925 753.098 251.343 752.863 250.894 752.395C250.444 751.923 250.22 751.293 250.22 750.505V750.339C250.22 749.815 250.319 749.348 250.518 748.938C250.719 748.524 250.999 748.202 251.357 747.971C251.719 747.736 252.109 747.619 252.529 747.619C253.216 747.619 253.75 747.845 254.131 748.298C254.512 748.75 254.702 749.398 254.702 750.241V750.617H251.123C251.136 751.138 251.287 751.56 251.577 751.882C251.87 752.201 252.241 752.36 252.69 752.36C253.009 752.36 253.28 752.295 253.501 752.165C253.722 752.035 253.916 751.862 254.082 751.647L254.634 752.077C254.191 752.757 253.527 753.098 252.642 753.098ZM252.529 748.361C252.165 748.361 251.859 748.495 251.611 748.762C251.364 749.025 251.211 749.396 251.152 749.875H253.799V749.807C253.773 749.348 253.649 748.993 253.428 748.742C253.206 748.488 252.907 748.361 252.529 748.361ZM258.306 748.527C258.169 748.505 258.021 748.493 257.861 748.493C257.269 748.493 256.867 748.745 256.655 749.25V753H255.752V747.717H256.631L256.646 748.327C256.942 747.855 257.362 747.619 257.905 747.619C258.081 747.619 258.215 747.642 258.306 747.688V748.527Z" fill="white"/>
</g>
<defs>
<radialGradient id="paint0_radial_" cx="0" cy="0" r="1" gradientUnits="userSpaceOnUse" gradientTransform="translate(278 99) rotate(90) scale(300)">
<stop stop-color="#F55614"/>
<stop offset="1" stop-color="#121214" stop-opacity="0"/>
</radialGradient>
<radialGradient id="paint1_radial_" cx="0" cy="0" r="1" gradientUnits="userSpaceOnUse" gradientTransform="translate(98 99) rotate(90) scale(300)">
<stop stop-color="#F5652A"/>
<stop offset="1" stop-color="#121214" stop-opacity="0"/>
</radialGradient>
<linearGradient id="paint2_linear_" x1="-67.9497" y1="58.9385" x2="436.115" y2="232.357" gradientUnits="userSpaceOnUse">
<stop stop-color="#F5652A"/>
<stop offset="1" stop-color="#F55614"/>
</linearGradient>
<linearGradient id="paint3_linear_" x1="95.1275" y1="217.565" x2="2.23833" y2="59.0469" gradientUnits="userSpaceOnUse">
<stop stop-color="#8257E5"/>
<stop offset="1" stop-color="#FF008E" stop-opacity="0"/>
</linearGradient>
<linearGradient id="paint4_linear_" x1="95.1275" y1="110.155" x2="2.23831" y2="-48.3627" gradientUnits="userSpaceOnUse">
<stop stop-color="#8257E5"/>
<stop offset="1" stop-color="#FF008E" stop-opacity="0"/>
</linearGradient>
<linearGradient id="paint5_linear_" x1="95.1275" y1="-105.732" x2="281.421" y2="6.68569" gradientUnits="userSpaceOnUse">
<stop stop-color="#FF008E" stop-opacity="0"/>
<stop offset="1" stop-color="#FFCD1E"/>
</linearGradient>
<linearGradient id="paint6_linear_" x1="375" y1="174.833" x2="188.706" y2="62.4153" gradientUnits="userSpaceOnUse">
<stop stop-color="#FF008E" stop-opacity="0"/>
<stop offset="1" stop-color="#FFCD1E"/>
</linearGradient>
<linearGradient id="paint7_linear_" x1="281.709" y1="110.155" x2="374.598" y2="-48.3627" gradientUnits="userSpaceOnUse">
<stop stop-color="#8257E5"/>
<stop offset="1" stop-color="#FF008E" stop-opacity="0"/>
</linearGradient>
<linearGradient id="paint8_linear_" x1="188.418" y1="66.3552" x2="281.307" y2="224.873" gradientUnits="userSpaceOnUse">
<stop stop-color="#8257E5"/>
<stop offset="1" stop-color="#FF008E" stop-opacity="0"/>
</linearGradient>
<clipPath id="clip0_">
<rect width="375" height="812" fill="white"/>
</clipPath>
</defs>
</svg>
