<svg width="1440" height="820" viewBox="0 0 1440 820" fill="none" xmlns="http://www.w3.org/2000/svg">
<rect y="6.10352e-05" width="1440" height="820" fill="#202024"/>
<circle cx="881" cy="-137" r="559" transform="rotate(-180 881 -137)" fill="url(#paint0_radial_61600_26)"/>
<circle cx="559" cy="-149" r="559" transform="rotate(-180 559 -149)" fill="url(#paint1_radial_61600_26)"/>
<path d="M612.238 757V746.336H615.248C616.176 746.336 616.996 746.541 617.709 746.951C618.422 747.361 618.971 747.945 619.357 748.702C619.748 749.458 619.945 750.328 619.95 751.309V751.99C619.95 752.996 619.755 753.877 619.364 754.634C618.979 755.391 618.424 755.972 617.702 756.377C616.984 756.783 616.146 756.99 615.189 757H612.238ZM613.644 747.493V755.85H615.124C616.208 755.85 617.05 755.513 617.65 754.839C618.256 754.166 618.559 753.206 618.559 751.961V751.338C618.559 750.127 618.273 749.188 617.702 748.519C617.135 747.845 616.33 747.503 615.285 747.493H613.644ZM625.158 757.146C624.083 757.146 623.209 756.795 622.536 756.092C621.862 755.384 621.525 754.439 621.525 753.257V753.008C621.525 752.222 621.674 751.521 621.972 750.906C622.274 750.286 622.694 749.803 623.231 749.456C623.773 749.104 624.359 748.929 624.989 748.929C626.02 748.929 626.82 749.268 627.392 749.947C627.963 750.625 628.249 751.597 628.249 752.862V753.426H622.88C622.899 754.207 623.126 754.839 623.561 755.323C624 755.801 624.557 756.041 625.231 756.041C625.709 756.041 626.115 755.943 626.447 755.748C626.779 755.552 627.069 755.293 627.318 754.971L628.146 755.616C627.482 756.636 626.486 757.146 625.158 757.146ZM624.989 750.042C624.442 750.042 623.983 750.242 623.612 750.643C623.241 751.038 623.012 751.595 622.924 752.312H626.894V752.21C626.854 751.521 626.669 750.989 626.337 750.613C626.005 750.232 625.556 750.042 624.989 750.042ZM634.438 754.898C634.438 754.532 634.298 754.249 634.02 754.048C633.747 753.843 633.266 753.667 632.577 753.521C631.894 753.375 631.349 753.199 630.944 752.994C630.543 752.789 630.246 752.544 630.05 752.261C629.86 751.978 629.765 751.641 629.765 751.25C629.765 750.601 630.038 750.052 630.585 749.603C631.137 749.153 631.84 748.929 632.694 748.929C633.593 748.929 634.32 749.161 634.877 749.625C635.438 750.088 635.719 750.682 635.719 751.404H634.357C634.357 751.033 634.198 750.713 633.881 750.445C633.568 750.176 633.173 750.042 632.694 750.042C632.201 750.042 631.815 750.149 631.537 750.364C631.259 750.579 631.12 750.86 631.12 751.207C631.12 751.534 631.249 751.78 631.508 751.946C631.767 752.112 632.233 752.271 632.907 752.422C633.585 752.574 634.135 752.754 634.555 752.964C634.975 753.174 635.285 753.428 635.485 753.726C635.69 754.019 635.792 754.378 635.792 754.803C635.792 755.511 635.509 756.08 634.943 756.509C634.376 756.934 633.642 757.146 632.738 757.146C632.104 757.146 631.542 757.034 631.054 756.81C630.565 756.585 630.182 756.272 629.904 755.872C629.63 755.467 629.494 755.03 629.494 754.561H630.849C630.873 755.015 631.054 755.376 631.391 755.645C631.732 755.909 632.182 756.041 632.738 756.041C633.251 756.041 633.661 755.938 633.969 755.733C634.281 755.523 634.438 755.245 634.438 754.898ZM640.846 757.146C639.772 757.146 638.898 756.795 638.224 756.092C637.55 755.384 637.213 754.439 637.213 753.257V753.008C637.213 752.222 637.362 751.521 637.66 750.906C637.963 750.286 638.383 749.803 638.92 749.456C639.462 749.104 640.048 748.929 640.678 748.929C641.708 748.929 642.509 749.268 643.08 749.947C643.651 750.625 643.937 751.597 643.937 752.862V753.426H638.568C638.588 754.207 638.815 754.839 639.25 755.323C639.689 755.801 640.246 756.041 640.919 756.041C641.398 756.041 641.803 755.943 642.135 755.748C642.467 755.552 642.758 755.293 643.007 754.971L643.834 755.616C643.17 756.636 642.174 757.146 640.846 757.146ZM640.678 750.042C640.131 750.042 639.672 750.242 639.301 750.643C638.93 751.038 638.7 751.595 638.612 752.312H642.582V752.21C642.543 751.521 642.357 750.989 642.025 750.613C641.693 750.232 641.244 750.042 640.678 750.042ZM646.793 749.075L646.837 750.071C647.443 749.31 648.234 748.929 649.21 748.929C650.885 748.929 651.73 749.874 651.745 751.763V757H650.39V751.756C650.385 751.185 650.253 750.762 649.994 750.489C649.74 750.215 649.342 750.079 648.8 750.079C648.361 750.079 647.975 750.196 647.643 750.43C647.311 750.665 647.052 750.972 646.867 751.353V757H645.512V749.075H646.793ZM656.403 755.162L658.366 749.075H659.75L656.908 757H655.875L653.004 749.075H654.389L656.403 755.162ZM660.578 752.964C660.578 752.188 660.729 751.49 661.032 750.87C661.339 750.25 661.764 749.771 662.306 749.434C662.853 749.097 663.476 748.929 664.174 748.929C665.253 748.929 666.125 749.302 666.789 750.049C667.458 750.796 667.792 751.79 667.792 753.03V753.125C667.792 753.897 667.643 754.59 667.345 755.206C667.052 755.816 666.63 756.292 666.078 756.634C665.531 756.976 664.901 757.146 664.188 757.146C663.114 757.146 662.243 756.773 661.574 756.026C660.91 755.279 660.578 754.29 660.578 753.06V752.964ZM661.94 753.125C661.94 754.004 662.143 754.71 662.548 755.242C662.958 755.774 663.505 756.041 664.188 756.041C664.877 756.041 665.424 755.772 665.829 755.235C666.234 754.693 666.437 753.936 666.437 752.964C666.437 752.095 666.229 751.392 665.814 750.855C665.404 750.313 664.857 750.042 664.174 750.042C663.505 750.042 662.965 750.308 662.555 750.84C662.145 751.373 661.94 752.134 661.94 753.125ZM670.963 757H669.608V745.75H670.963V757ZM675.753 755.162L677.716 749.075H679.101L676.259 757H675.226L672.355 749.075H673.739L675.753 755.162ZM681.876 757H680.521V749.075H681.876V757ZM680.412 746.973C680.412 746.753 680.478 746.568 680.609 746.417C680.746 746.265 680.946 746.189 681.21 746.189C681.474 746.189 681.674 746.265 681.811 746.417C681.947 746.568 682.016 746.753 682.016 746.973C682.016 747.193 681.947 747.376 681.811 747.522C681.674 747.669 681.474 747.742 681.21 747.742C680.946 747.742 680.746 747.669 680.609 747.522C680.478 747.376 680.412 747.193 680.412 746.973ZM683.722 752.972C683.722 751.756 684.01 750.779 684.586 750.042C685.163 749.3 685.917 748.929 686.85 748.929C687.777 748.929 688.512 749.246 689.054 749.881V745.75H690.409V757H689.164L689.098 756.15C688.556 756.814 687.802 757.146 686.835 757.146C685.917 757.146 685.167 756.771 684.586 756.019C684.01 755.267 683.722 754.285 683.722 753.074V752.972ZM685.077 753.125C685.077 754.024 685.263 754.727 685.634 755.235C686.005 755.743 686.518 755.997 687.172 755.997C688.031 755.997 688.659 755.611 689.054 754.839V751.199C688.649 750.452 688.026 750.079 687.187 750.079C686.522 750.079 686.005 750.335 685.634 750.848C685.263 751.36 685.077 752.12 685.077 753.125ZM692.16 752.964C692.16 752.188 692.311 751.49 692.614 750.87C692.921 750.25 693.346 749.771 693.888 749.434C694.435 749.097 695.058 748.929 695.756 748.929C696.835 748.929 697.707 749.302 698.371 750.049C699.04 750.796 699.374 751.79 699.374 753.03V753.125C699.374 753.897 699.225 754.59 698.927 755.206C698.634 755.816 698.212 756.292 697.66 756.634C697.113 756.976 696.483 757.146 695.771 757.146C694.696 757.146 693.825 756.773 693.156 756.026C692.492 755.279 692.16 754.29 692.16 753.06V752.964ZM693.522 753.125C693.522 754.004 693.725 754.71 694.13 755.242C694.54 755.774 695.087 756.041 695.771 756.041C696.459 756.041 697.006 755.772 697.411 755.235C697.816 754.693 698.019 753.936 698.019 752.964C698.019 752.095 697.812 751.392 697.396 750.855C696.986 750.313 696.439 750.042 695.756 750.042C695.087 750.042 694.547 750.308 694.137 750.84C693.727 751.373 693.522 752.134 693.522 753.125ZM711.488 753.125C711.488 754.332 711.212 755.303 710.661 756.041C710.109 756.778 709.362 757.146 708.419 757.146C707.458 757.146 706.701 756.841 706.149 756.231V760.047H704.794V749.075H706.032L706.098 749.954C706.649 749.271 707.416 748.929 708.397 748.929C709.35 748.929 710.102 749.288 710.653 750.005C711.21 750.723 711.488 751.722 711.488 753.001V753.125ZM710.133 752.972C710.133 752.078 709.943 751.373 709.562 750.855C709.181 750.337 708.659 750.079 707.995 750.079C707.174 750.079 706.559 750.442 706.149 751.17V754.957C706.554 755.679 707.174 756.041 708.009 756.041C708.659 756.041 709.174 755.784 709.555 755.271C709.94 754.754 710.133 753.987 710.133 752.972ZM712.858 752.964C712.858 752.188 713.009 751.49 713.312 750.87C713.62 750.25 714.044 749.771 714.586 749.434C715.133 749.097 715.756 748.929 716.454 748.929C717.533 748.929 718.405 749.302 719.069 750.049C719.738 750.796 720.072 751.79 720.072 753.03V753.125C720.072 753.897 719.923 754.59 719.625 755.206C719.333 755.816 718.91 756.292 718.358 756.634C717.812 756.976 717.182 757.146 716.469 757.146C715.395 757.146 714.523 756.773 713.854 756.026C713.19 755.279 712.858 754.29 712.858 753.06V752.964ZM714.22 753.125C714.22 754.004 714.423 754.71 714.828 755.242C715.238 755.774 715.785 756.041 716.469 756.041C717.157 756.041 717.704 755.772 718.109 755.235C718.515 754.693 718.717 753.936 718.717 752.964C718.717 752.095 718.51 751.392 718.095 750.855C717.685 750.313 717.138 750.042 716.454 750.042C715.785 750.042 715.246 750.308 714.835 750.84C714.425 751.373 714.22 752.134 714.22 753.125ZM725.602 750.291C725.397 750.257 725.175 750.24 724.936 750.24C724.047 750.24 723.444 750.618 723.126 751.375V757H721.771V749.075H723.09L723.112 749.991C723.556 749.283 724.186 748.929 725.001 748.929C725.265 748.929 725.465 748.963 725.602 749.031V750.291ZM736.815 752.071H732.194V755.85H737.562V757H730.788V746.336H737.489V747.493H732.194V750.921H736.815V752.071ZM739.313 757V746.336H742.323C743.251 746.336 744.071 746.541 744.784 746.951C745.497 747.361 746.046 747.945 746.432 748.702C746.823 749.458 747.021 750.328 747.025 751.309V751.99C747.025 752.996 746.83 753.877 746.439 754.634C746.054 755.391 745.5 755.972 744.777 756.377C744.059 756.783 743.222 756.99 742.265 757H739.313ZM740.719 747.493V755.85H742.199C743.283 755.85 744.125 755.513 744.726 754.839C745.331 754.166 745.634 753.206 745.634 751.961V751.338C745.634 750.127 745.348 749.188 744.777 748.519C744.21 747.845 743.405 747.503 742.36 747.493H740.719ZM750.57 755.85H755.624V757H749.157V746.336H750.57V755.85ZM760.949 757V746.336H763.959C764.887 746.336 765.707 746.541 766.42 746.951C767.133 747.361 767.682 747.945 768.068 748.702C768.458 749.458 768.656 750.328 768.661 751.309V751.99C768.661 752.996 768.466 753.877 768.075 754.634C767.689 755.391 767.135 755.972 766.413 756.377C765.695 756.783 764.857 756.99 763.9 757H760.949ZM762.355 747.493V755.85H763.834C764.918 755.85 765.761 755.513 766.361 754.839C766.967 754.166 767.27 753.206 767.27 751.961V751.338C767.27 750.127 766.984 749.188 766.413 748.519C765.846 747.845 765.041 747.503 763.996 747.493H762.355ZM773.869 757.146C772.794 757.146 771.92 756.795 771.247 756.092C770.573 755.384 770.236 754.439 770.236 753.257V753.008C770.236 752.222 770.385 751.521 770.683 750.906C770.985 750.286 771.405 749.803 771.942 749.456C772.484 749.104 773.07 748.929 773.7 748.929C774.73 748.929 775.531 749.268 776.103 749.947C776.674 750.625 776.959 751.597 776.959 752.862V753.426H771.591C771.61 754.207 771.837 754.839 772.272 755.323C772.711 755.801 773.268 756.041 773.942 756.041C774.42 756.041 774.826 755.943 775.158 755.748C775.49 755.552 775.78 755.293 776.029 754.971L776.857 755.616C776.193 756.636 775.197 757.146 773.869 757.146ZM773.7 750.042C773.153 750.042 772.694 750.242 772.323 750.643C771.952 751.038 771.723 751.595 771.635 752.312H775.604V752.21C775.565 751.521 775.38 750.989 775.048 750.613C774.716 750.232 774.267 750.042 773.7 750.042ZM781.046 755.162L783.009 749.075H784.394L781.552 757H780.519L777.648 749.075H779.032L781.046 755.162ZM788.883 757.146C787.809 757.146 786.935 756.795 786.261 756.092C785.587 755.384 785.25 754.439 785.25 753.257V753.008C785.25 752.222 785.399 751.521 785.697 750.906C786 750.286 786.42 749.803 786.957 749.456C787.499 749.104 788.085 748.929 788.715 748.929C789.745 748.929 790.546 749.268 791.117 749.947C791.688 750.625 791.974 751.597 791.974 752.862V753.426H786.605C786.625 754.207 786.852 754.839 787.287 755.323C787.726 755.801 788.283 756.041 788.957 756.041C789.435 756.041 789.84 755.943 790.172 755.748C790.504 755.552 790.795 755.293 791.044 754.971L791.872 755.616C791.208 756.636 790.211 757.146 788.883 757.146ZM788.715 750.042C788.168 750.042 787.709 750.242 787.338 750.643C786.967 751.038 786.737 751.595 786.649 752.312H790.619V752.21C790.58 751.521 790.395 750.989 790.062 750.613C789.73 750.232 789.281 750.042 788.715 750.042ZM795.021 757H793.666V745.75H795.021V757ZM796.837 752.964C796.837 752.188 796.989 751.49 797.292 750.87C797.599 750.25 798.024 749.771 798.566 749.434C799.113 749.097 799.735 748.929 800.434 748.929C801.513 748.929 802.384 749.302 803.048 750.049C803.717 750.796 804.052 751.79 804.052 753.03V753.125C804.052 753.897 803.903 754.59 803.605 755.206C803.312 755.816 802.89 756.292 802.338 756.634C801.791 756.976 801.161 757.146 800.448 757.146C799.374 757.146 798.502 756.773 797.833 756.026C797.169 755.279 796.837 754.29 796.837 753.06V752.964ZM798.2 753.125C798.2 754.004 798.402 754.71 798.808 755.242C799.218 755.774 799.765 756.041 800.448 756.041C801.137 756.041 801.684 755.772 802.089 755.235C802.494 754.693 802.697 753.936 802.697 752.964C802.697 752.095 802.489 751.392 802.074 750.855C801.664 750.313 801.117 750.042 800.434 750.042C799.765 750.042 799.225 750.308 798.815 750.84C798.405 751.373 798.2 752.134 798.2 753.125ZM812.445 753.125C812.445 754.332 812.169 755.303 811.618 756.041C811.066 756.778 810.319 757.146 809.376 757.146C808.415 757.146 807.658 756.841 807.106 756.231V760.047H805.751V749.075H806.989L807.055 749.954C807.606 749.271 808.373 748.929 809.354 748.929C810.307 748.929 811.059 749.288 811.61 750.005C812.167 750.723 812.445 751.722 812.445 753.001V753.125ZM811.09 752.972C811.09 752.078 810.9 751.373 810.519 750.855C810.138 750.337 809.616 750.079 808.952 750.079C808.131 750.079 807.516 750.442 807.106 751.17V754.957C807.511 755.679 808.131 756.041 808.966 756.041C809.616 756.041 810.131 755.784 810.512 755.271C810.897 754.754 811.09 753.987 811.09 752.972ZM817.462 757.146C816.388 757.146 815.514 756.795 814.84 756.092C814.167 755.384 813.83 754.439 813.83 753.257V753.008C813.83 752.222 813.979 751.521 814.276 750.906C814.579 750.286 814.999 749.803 815.536 749.456C816.078 749.104 816.664 748.929 817.294 748.929C818.324 748.929 819.125 749.268 819.696 749.947C820.268 750.625 820.553 751.597 820.553 752.862V753.426H815.185C815.204 754.207 815.431 754.839 815.866 755.323C816.305 755.801 816.862 756.041 817.536 756.041C818.014 756.041 818.419 755.943 818.751 755.748C819.083 755.552 819.374 755.293 819.623 754.971L820.451 755.616C819.787 756.636 818.791 757.146 817.462 757.146ZM817.294 750.042C816.747 750.042 816.288 750.242 815.917 750.643C815.546 751.038 815.316 751.595 815.229 752.312H819.198V752.21C819.159 751.521 818.974 750.989 818.642 750.613C818.31 750.232 817.86 750.042 817.294 750.042ZM825.958 750.291C825.753 750.257 825.531 750.24 825.292 750.24C824.403 750.24 823.8 750.618 823.483 751.375V757H822.128V749.075H823.446L823.468 749.991C823.913 749.283 824.542 748.929 825.358 748.929C825.622 748.929 825.822 748.963 825.958 749.031V750.291Z" fill="white"/>
<defs>
<radialGradient id="paint0_radial_61600_26" cx="0" cy="0" r="1" gradientUnits="userSpaceOnUse" gradientTransform="translate(881 -137) rotate(90) scale(559)">
<stop stop-color="#2FC18C"/>
<stop offset="1" stop-color="#121214" stop-opacity="0"/>
</radialGradient>
<radialGradient id="paint1_radial_61600_26" cx="0" cy="0" r="1" gradientUnits="userSpaceOnUse" gradientTransform="translate(559 -149) rotate(90) scale(559)">
<stop stop-color="#2FC18C"/>
<stop offset="1" stop-color="#121214" stop-opacity="0"/>
</radialGradient>
</defs>
</svg>
