<svg width="358" height="680" viewBox="0 0 358 680" fill="none" xmlns="http://www.w3.org/2000/svg">
<rect y="140" width="358" height="540" rx="32" fill="#202024"/>
<mask id="mask0_61514_19" style="mask-type:alpha" maskUnits="userSpaceOnUse" x="0" y="140" width="358" height="540">
<rect y="140" width="358" height="540" rx="32" fill="url(#paint0_linear_61514_19)"/>
</mask>
<g mask="url(#mask0_61514_19)">
<path d="M358 201.492V-256.824L178.5 -360L-1 -256.824V201.492V304.674H16.5H91.5H169H262.5H338.5H358V201.492Z" fill="url(#paint1_linear_61514_19)"/>
</g>
<rect x="139" y="156" width="80" height="8" fill="#121214"/>
<rect x="147" width="64" height="158" fill="url(#paint2_linear_61514_19)"/>
<path fill-rule="evenodd" clip-rule="evenodd" d="M0 634V648C0 665.673 14.3269 680 32 680H179H326C343.673 680 358 665.673 358 648V634V610V645C358 652.468 354.163 659.412 347.84 663.386L346.498 664.23C342.579 666.693 338.044 668 333.415 668H268.5H179H82.5H25.9773C21.4067 668 16.9171 666.794 12.9617 664.504L10.3851 663.012C3.95759 659.291 0 652.427 0 645V610V634Z" fill="#069371"/>
<circle cx="179" cy="275" r="91" fill="url(#paint3_linear_61514_19)"/>
<defs>
<linearGradient id="paint0_linear_61514_19" x1="-7.3249e-06" y1="152.809" x2="434.657" y2="226.239" gradientUnits="userSpaceOnUse">
<stop stop-color="#069371"/>
<stop offset="1" stop-color="#069371"/>
</linearGradient>
<linearGradient id="paint1_linear_61514_19" x1="-1.00001" y1="-344.234" x2="438.976" y2="-283.679" gradientUnits="userSpaceOnUse">
<stop stop-color="#069371"/>
<stop offset="1" stop-color="#069371"/>
</linearGradient>
<linearGradient id="paint2_linear_61514_19" x1="108.5" y1="4.93019e-08" x2="241" y2="158" gradientUnits="userSpaceOnUse">
<stop stop-color="#069371"/>
<stop offset="0.604167" stop-color="#069371"/>
</linearGradient>
<linearGradient id="paint3_linear_61514_19" x1="105" y1="241.5" x2="260" y2="309.5" gradientUnits="userSpaceOnUse">
<stop offset="0.427083" stop-color="#2FC18C"/>
<stop offset="0.729167" stop-color="#2FC18C"/>
</linearGradient>
</defs>
</svg>
