<svg width="358" height="540" viewBox="0 0 358 540" fill="none" xmlns="http://www.w3.org/2000/svg">
<rect width="358" height="540" rx="32" fill="#202024"/>
<path fill-rule="evenodd" clip-rule="evenodd" d="M0 494V508C0 525.673 14.3269 540 32 540H179H326C343.673 540 358 525.673 358 508V494V470V505V505C358 512.468 354.163 519.412 347.84 523.386L346.498 524.23C342.579 526.693 338.044 528 333.415 528H268.5H179H82.5H25.9773C21.4067 528 16.9171 526.794 12.9617 524.504L10.3851 523.012C3.95759 519.291 0 512.427 0 505V505V470V494Z" fill="#069371"/>
<mask id="mask0_61385_105" style="mask-type:alpha" maskUnits="userSpaceOnUse" x="0" y="0" width="358" height="540">
<rect width="358" height="540" rx="32" fill="url(#paint0_linear_61385_105)"/>
</mask>
<g mask="url(#mask0_61385_105)">
<path d="M358 61.4924V-396.824L178.5 -500L-1 -396.824V61.4924V164.674H16.5H91.5H169H262.5H338.5H358V61.4924Z" fill="url(#paint1_linear_61385_105)"/>
<circle cx="179" cy="135" r="91" fill="url(#paint2_linear_61385_105)"/>
</g>
<defs>
<linearGradient id="paint0_linear_61385_105" x1="-7.3249e-06" y1="12.809" x2="434.657" y2="86.2385" gradientUnits="userSpaceOnUse">
<stop stop-color="#069371"/>
<stop offset="1" stop-color="#069371"/>
</linearGradient>
<linearGradient id="paint1_linear_61385_105" x1="-1.00001" y1="-484.234" x2="438.976" y2="-423.679" gradientUnits="userSpaceOnUse">
<stop stop-color="#069371"/>
<stop offset="1" stop-color="#069371"/>
</linearGradient>
<linearGradient id="paint2_linear_61385_105" x1="105" y1="101.5" x2="260" y2="169.5" gradientUnits="userSpaceOnUse">
<stop offset="0.427083" stop-color="#2FC18C"/>
<stop offset="0.729167" stop-color="#2FC18C"/>
</linearGradient>
</defs>
</svg>
