<svg width="76" height="74" viewBox="0 0 76 74" fill="none" xmlns="http://www.w3.org/2000/svg">
<path d="M45.5423 30.4509L64.453 34.2435C65.5206 34.453 66.375 34.0791 66.9717 33.4041C67.8629 32.396 68.0504 30.6924 66.7933 29.5812L41.8334 7.45162C40.5763 6.34037 38.9073 6.66294 38.0132 7.67435C37.4175 8.34827 37.157 9.31462 37.4944 10.3452L43.5084 28.653C43.6406 29.1009 43.9427 29.505 44.2735 29.7974C44.6481 30.1241 45.0448 30.3422 45.5423 30.4509Z" fill="white"/>
<path d="M43.1503 41.7248L62.0575 45.4471C62.555 45.5559 63.0259 45.769 63.3567 46.0614C64.43 47.0102 64.495 48.7985 63.5352 49.8843C63.2373 50.2213 62.8656 50.4935 62.3836 50.6634L30.5101 61.4609C29.4746 61.8127 28.545 61.521 27.9178 60.9665C26.8836 60.0523 26.5417 58.3503 27.6658 57.0787L40.5992 42.5958C41.259 41.8544 42.2251 41.5073 43.1503 41.7248Z" fill="white"/>
<path d="M31.8773 34.9565L19.0151 49.5068C17.8911 50.7784 16.2319 50.6454 15.2321 49.7616C14.5655 49.1724 14.1666 48.2854 14.3866 47.2169L21.298 14.2872C21.4143 13.7852 21.635 13.3134 21.933 12.9763C22.8927 11.8906 24.6426 11.7727 25.7527 12.754C26.086 13.0486 26.3206 13.4548 26.4849 13.9356L32.4334 32.3175C32.7299 33.2463 32.5368 34.2104 31.8773 34.9565Z" fill="white"/>
</svg>
